<mxfile host="app.diagrams.net" agent="Mozilla/5.0 (X11; Linux x86_64) AppleWebKit/537.36 (KHTML, like Gecko) Chrome/133.0.0.0 Safari/537.36" version="26.0.16">
  <diagram name="Page-1" id="FmIGBg84QRiCbfud3P6u">
    <mxGraphModel dx="733" dy="1501" grid="1" gridSize="10" guides="1" tooltips="1" connect="1" arrows="1" fold="1" page="1" pageScale="1" pageWidth="850" pageHeight="1100" math="0" shadow="0">
      <root>
        <mxCell id="0" />
        <mxCell id="1" parent="0" />
        <mxCell id="CPUTEz3y_prOQRJcTDRX-1" value="Khách hàng" style="shape=umlActor;verticalLabelPosition=bottom;verticalAlign=top;html=1;" vertex="1" parent="1">
          <mxGeometry x="230" y="140" width="30" height="60" as="geometry" />
        </mxCell>
        <mxCell id="CPUTEz3y_prOQRJcTDRX-2" value="Nhân viên" style="shape=umlActor;verticalLabelPosition=bottom;verticalAlign=top;html=1;" vertex="1" parent="1">
          <mxGeometry x="510" y="-10" width="30" height="60" as="geometry" />
        </mxCell>
        <mxCell id="CPUTEz3y_prOQRJcTDRX-3" value="" style="endArrow=none;html=1;rounded=0;" edge="1" parent="1" source="CPUTEz3y_prOQRJcTDRX-1" target="CPUTEz3y_prOQRJcTDRX-2">
          <mxGeometry width="50" height="50" relative="1" as="geometry">
            <mxPoint x="380" y="170" as="sourcePoint" />
            <mxPoint x="430" y="120" as="targetPoint" />
          </mxGeometry>
        </mxCell>
        <mxCell id="CPUTEz3y_prOQRJcTDRX-4" value="" style="endArrow=classic;html=1;rounded=0;" edge="1" parent="1">
          <mxGeometry width="50" height="50" relative="1" as="geometry">
            <mxPoint x="330" y="100" as="sourcePoint" />
            <mxPoint x="400" y="60" as="targetPoint" />
          </mxGeometry>
        </mxCell>
        <mxCell id="CPUTEz3y_prOQRJcTDRX-5" value="1. Đặt đơn" style="text;html=1;align=center;verticalAlign=middle;resizable=0;points=[];autosize=1;strokeColor=none;fillColor=none;" vertex="1" parent="1">
          <mxGeometry x="295" y="50" width="80" height="30" as="geometry" />
        </mxCell>
        <mxCell id="CPUTEz3y_prOQRJcTDRX-6" value=":formtaodon" style="shape=umlBoundary;whiteSpace=wrap;html=1;" vertex="1" parent="1">
          <mxGeometry x="770" y="140" width="100" height="80" as="geometry" />
        </mxCell>
        <mxCell id="CPUTEz3y_prOQRJcTDRX-7" value="" style="endArrow=none;html=1;rounded=0;" edge="1" parent="1" source="CPUTEz3y_prOQRJcTDRX-6" target="CPUTEz3y_prOQRJcTDRX-2">
          <mxGeometry width="50" height="50" relative="1" as="geometry">
            <mxPoint x="270" y="172" as="sourcePoint" />
            <mxPoint x="520" y="38" as="targetPoint" />
          </mxGeometry>
        </mxCell>
        <mxCell id="CPUTEz3y_prOQRJcTDRX-9" value="" style="endArrow=classic;html=1;rounded=0;" edge="1" parent="1">
          <mxGeometry width="50" height="50" relative="1" as="geometry">
            <mxPoint x="630" y="50" as="sourcePoint" />
            <mxPoint x="700" y="90" as="targetPoint" />
          </mxGeometry>
        </mxCell>
        <mxCell id="CPUTEz3y_prOQRJcTDRX-10" value="2.Nhập tt đơn" style="text;html=1;align=center;verticalAlign=middle;resizable=0;points=[];autosize=1;strokeColor=none;fillColor=none;" vertex="1" parent="1">
          <mxGeometry x="655" y="40" width="100" height="30" as="geometry" />
        </mxCell>
        <mxCell id="CPUTEz3y_prOQRJcTDRX-11" value=":Đầu quẹt thẻ" style="ellipse;shape=umlControl;whiteSpace=wrap;html=1;" vertex="1" parent="1">
          <mxGeometry x="785" y="-60" width="70" height="80" as="geometry" />
        </mxCell>
        <mxCell id="CPUTEz3y_prOQRJcTDRX-12" value="Control&lt;br&gt;quanly" style="ellipse;shape=umlControl;whiteSpace=wrap;html=1;" vertex="1" parent="1">
          <mxGeometry x="500" y="250" width="70" height="80" as="geometry" />
        </mxCell>
        <mxCell id="CPUTEz3y_prOQRJcTDRX-13" value="" style="endArrow=none;html=1;rounded=0;" edge="1" parent="1" source="CPUTEz3y_prOQRJcTDRX-6" target="CPUTEz3y_prOQRJcTDRX-12">
          <mxGeometry width="50" height="50" relative="1" as="geometry">
            <mxPoint x="780" y="163" as="sourcePoint" />
            <mxPoint x="550" y="38" as="targetPoint" />
          </mxGeometry>
        </mxCell>
        <mxCell id="CPUTEz3y_prOQRJcTDRX-14" value="3.Gửi tt đến controller" style="text;html=1;align=center;verticalAlign=middle;resizable=0;points=[];autosize=1;strokeColor=none;fillColor=none;" vertex="1" parent="1">
          <mxGeometry x="530" y="190" width="140" height="30" as="geometry" />
        </mxCell>
        <mxCell id="CPUTEz3y_prOQRJcTDRX-15" value="" style="endArrow=classic;html=1;rounded=0;" edge="1" parent="1">
          <mxGeometry width="50" height="50" relative="1" as="geometry">
            <mxPoint x="690" y="200" as="sourcePoint" />
            <mxPoint x="590" y="240" as="targetPoint" />
          </mxGeometry>
        </mxCell>
        <mxCell id="CPUTEz3y_prOQRJcTDRX-16" value="donhang" style="ellipse;shape=umlEntity;whiteSpace=wrap;html=1;" vertex="1" parent="1">
          <mxGeometry x="280" y="340" width="80" height="80" as="geometry" />
        </mxCell>
        <mxCell id="CPUTEz3y_prOQRJcTDRX-17" value="" style="endArrow=none;html=1;rounded=0;" edge="1" parent="1" source="CPUTEz3y_prOQRJcTDRX-12" target="CPUTEz3y_prOQRJcTDRX-16">
          <mxGeometry width="50" height="50" relative="1" as="geometry">
            <mxPoint x="636" y="350" as="sourcePoint" />
            <mxPoint x="434" y="428" as="targetPoint" />
          </mxGeometry>
        </mxCell>
        <mxCell id="CPUTEz3y_prOQRJcTDRX-18" value="" style="endArrow=classic;html=1;rounded=0;" edge="1" parent="1">
          <mxGeometry width="50" height="50" relative="1" as="geometry">
            <mxPoint x="470" y="290" as="sourcePoint" />
            <mxPoint x="380" y="330" as="targetPoint" />
          </mxGeometry>
        </mxCell>
        <mxCell id="CPUTEz3y_prOQRJcTDRX-19" value="4.Lưu tt đơn hàng" style="text;html=1;align=center;verticalAlign=middle;resizable=0;points=[];autosize=1;strokeColor=none;fillColor=none;" vertex="1" parent="1">
          <mxGeometry x="340" y="275" width="120" height="30" as="geometry" />
        </mxCell>
        <mxCell id="CPUTEz3y_prOQRJcTDRX-20" value="Cấp thẻ" style="html=1;verticalAlign=bottom;endArrow=open;dashed=1;endSize=8;curved=0;rounded=0;" edge="1" parent="1">
          <mxGeometry relative="1" as="geometry">
            <mxPoint x="450" y="100" as="sourcePoint" />
            <mxPoint x="345" y="160" as="targetPoint" />
          </mxGeometry>
        </mxCell>
        <mxCell id="CPUTEz3y_prOQRJcTDRX-21" value="5.Trả về kq" style="html=1;verticalAlign=bottom;endArrow=open;dashed=1;endSize=8;curved=0;rounded=0;" edge="1" parent="1">
          <mxGeometry relative="1" as="geometry">
            <mxPoint x="410" y="380" as="sourcePoint" />
            <mxPoint x="500" y="340" as="targetPoint" />
          </mxGeometry>
        </mxCell>
        <mxCell id="CPUTEz3y_prOQRJcTDRX-22" value="6.Yêu cầu nv tạo thẻ" style="html=1;verticalAlign=bottom;endArrow=open;dashed=1;endSize=8;curved=0;rounded=0;" edge="1" parent="1">
          <mxGeometry relative="1" as="geometry">
            <mxPoint x="640" y="290" as="sourcePoint" />
            <mxPoint x="730" y="250" as="targetPoint" />
          </mxGeometry>
        </mxCell>
      </root>
    </mxGraphModel>
  </diagram>
</mxfile>
